<svg width="200" height="200" viewBox="0 0 200 200" xmlns="http://www.w3.org/2000/svg">
  <!-- Círculo preto de fundo -->
  <circle cx="100" cy="100" r="100" fill="#000000"/>
  
  <!-- Círculo vermelho -->
  <circle cx="100" cy="100" r="85" fill="#FF0000"/>
  
  <!-- Círculo branco principal -->
  <circle cx="100" cy="95" r="55" fill="white"/>
  
  <!-- Estrutura do Torii em laranja/dourado -->
  <g fill="#FFA500">
    <!-- Travessa horizontal superior (mais larga) -->
    <rect x="50" y="70" width="100" height="8" rx="2"/>
    
    <!-- Travessa horizontal inferior -->
    <rect x="55" y="85" width="90" height="6" rx="1"/>
    
    <!-- Pilares verticais principais -->
    <rect x="65" y="70" width="6" height="45"/>
    <rect x="129" y="70" width="6" height="45"/>
    
    <!-- Detalhes horizontais menores nas laterais -->
    <rect x="45" y="95" width="15" height="3"/>
    <rect x="140" y="95" width="15" height="3"/>
    
    <!-- Elemento central vertical -->
    <rect x="97" y="100" width="6" height="20"/>
  </g>
  
  <!-- Elementos vermelhos triangulares -->
  <g fill="#FF0000">
    <!-- Triângulo central vermelho -->
    <path d="M90 105 L100 125 L110 105 Z"/>
  </g>
  
  <!-- Pilares brancos inferiores -->
  <g fill="white">
    <rect x="67" y="150" width="8" height="30"/>
    <rect x="125" y="150" width="8" height="30"/>
  </g>
  
  <!-- Texto DOJO -->
  <text x="100" y="170" text-anchor="middle" fill="white" font-size="16" font-weight="bold" font-family="Arial, sans-serif" letter-spacing="4">
    DOJO
  </text>
  
  <!-- Linha decorativa -->
  <line x1="65" y1="175" x2="135" y2="175" stroke="white" stroke-width="2"/>
  
  <!-- Texto POKER -->
  <text x="100" y="188" text-anchor="middle" fill="white" font-size="12" font-family="Arial, sans-serif" letter-spacing="3">
    POKER
  </text>
</svg>
